<?xml version="1.0" encoding="utf-8"?>
<svg xmlns="http://www.w3.org/2000/svg" height="512pt" version="1.1" viewBox="0 0 512 512" width="512pt">
<path d="M 0.00 0.00 L 512.00 0.00 L 512.00 512.00 L 0.00 512.00 L 0.00 0.00 Z" fill="transparent" opacity="1.00" stroke="transparent" stroke-width="0.25"/>
<path d="M 260.01 78.01 C 260.25 77.40 260.72 76.19 260.96 75.59 C 263.78 102.51 268.99 129.12 272.89 155.90 C 276.13 177.23 279.32 198.56 282.47 219.90 C 290.77 214.13 298.55 207.63 306.76 201.74 C 319.00 192.98 331.34 184.36 343.49 175.49 C 345.26 174.13 346.98 172.62 349.14 171.91 C 348.62 172.80 348.06 173.66 347.45 174.49 C 337.96 186.34 328.34 198.11 319.35 210.35 C 312.84 219.36 306.01 228.14 299.43 237.08 C 303.66 237.27 307.83 238.08 311.99 238.87 C 336.67 242.56 361.37 246.11 386.00 250.13 C 405.36 252.72 424.53 256.57 443.92 258.87 C 438.44 260.59 432.58 260.80 426.99 262.14 C 384.65 268.12 342.39 274.69 300.15 281.31 C 303.37 287.06 307.81 292.00 311.83 297.18 C 327.08 315.78 341.36 335.16 357.07 353.38 C 354.76 352.33 352.65 350.90 350.66 349.34 C 328.22 332.32 305.38 315.84 282.77 299.05 C 281.00 302.42 281.57 306.57 280.43 310.21 C 274.86 346.68 269.22 383.14 263.76 419.63 C 262.39 426.51 261.70 433.50 260.91 440.46 C 260.58 440.53 259.93 440.68 259.60 440.76 C 256.65 416.24 251.90 391.99 248.52 367.53 C 244.85 344.44 241.48 321.30 237.53 298.25 C 235.65 299.42 233.79 300.64 232.10 302.08 C 217.01 314.43 201.24 325.89 185.97 338.01 C 181.48 341.22 177.36 344.94 172.73 347.95 C 187.87 325.26 205.33 304.16 220.63 281.56 C 219.32 280.90 217.94 280.42 216.49 280.27 C 182.40 274.52 148.10 270.14 113.96 264.72 C 103.89 263.51 93.95 261.49 83.97 259.72 C 83.17 259.62 82.51 259.26 81.98 258.66 C 114.86 253.71 147.61 247.98 180.48 243.02 C 193.90 240.66 207.42 238.96 220.81 236.43 C 219.46 234.42 217.65 232.79 216.23 230.85 C 202.12 210.09 186.94 190.09 172.36 169.68 C 192.03 184.65 211.55 199.85 231.31 214.71 C 233.55 216.60 235.80 218.49 238.41 219.86 C 239.96 213.02 240.45 206.01 241.55 199.10 C 245.42 175.57 248.65 151.94 252.25 128.37 C 254.44 111.52 257.75 94.84 260.01 78.01 Z" fill="#101112" opacity="1.00" stroke="#101112" stroke-width="0.25"/>
</svg>